<?xml version="1.0" encoding="utf-8"?>
<!-- Svg Vector Icons : http://www.sfont.cn -->
<!DOCTYPE svg PUBLIC "-//W3C//DTD SVG 1.1//EN" "http://www.w3.org/Graphics/SVG/1.1/DTD/svg11.dtd">
<svg version="1.1" xmlns="http://www.w3.org/2000/svg" xmlns:xlink="http://www.w3.org/1999/xlink" x="0px" y="0px" viewBox="0 0 1000 1000" enable-background="new 0 0 1000 1000" xml:space="preserve">
<metadata> Svg Vector Icons : http://www.sfont.cn </metadata>
<g><g transform="translate(0.000000,511.000000) scale(0.100000,-0.100000)"><path d="M4740.1,4774.3c-584.9-590.9-1572.7-925.1-2963.3-1002.7c-411.8-23.9-426.7-35.8-492.4-334.2c-77.6-370-214.9-1268.3-280.5-1814.4C917.4,868,893.5-382.4,956.2-928.5C1093.4-2086.3,1439.6-2713,2299-3348.6c578.9-432.7,1629.4-999.7,2536.5-1369.7l170.1-71.6l173.1,71.6c373,149.2,1504,722.2,1880,949c1062.4,647.6,1566.7,1181.7,1811.4,1930.8c173.1,525.2,208.9,862.4,208.9,1894.9c-3,940-29.8,1328-152.2,2178.4c-71.6,501.3-226.8,1351.8-253.7,1408.5c-47.8,89.5-122.4,107.4-611.8,143.2c-1265.3,86.5-2256,456.6-2790.2,1041.5c-107.4,116.4-191,182-232.8,182C4996.7,5010,4892.3,4926.4,4740.1,4774.3z M5560.7,3989.4c590.9-361.1,1417.5-584.9,2435.1-665.5c202.9-17.9,262.6-32.8,274.6-71.6c32.8-104.4,170.1-940,241.7-1450.3c223.8-1653.2,140.3-3103.5-223.8-3849.6c-173.1-358.1-525.2-698.3-1178.7-1134c-564-376-1360.8-802.8-1951.7-1044.5l-161.1-65.7l-259.6,110.4c-904.2,393.9-1853.2,949-2411.2,1414.5c-659.5,549.1-880.3,1125-946,2494.8c-41.8,790.8,107.4,2405.2,316.3,3419.8l29.8,155.2l259.6,17.9c910.2,71.6,1718.9,259.6,2256,531.2c250.7,125.3,549.1,328.3,671.4,450.6l98.5,104.4l185-155.2C5295.2,4168.5,5459.3,4049.1,5560.7,3989.4z"/><path d="M4647.6,1491.7c-265.6-86.5-761-334.2-1178.7-584.9c-534.2-319.3-1145.9-755-1184.7-838.6c-62.7-137.3,12-226.8,358.1-420.8c581.9-325.3,763.9-420.8,1232.5-632.6c617.7-277.5,856.4-343.2,1193.7-325.3c223.8,14.9,310.4,38.8,686.4,188c483.4,191,784.8,346.2,1468.2,752c298.4,179.1,483.4,307.4,504.3,352.1c59.7,134.3,8.9,211.9-268.6,396.9c-826.6,555.1-1674.1,999.7-2139.7,1128C5116.1,1563.3,4844.5,1557.3,4647.6,1491.7z M5295.2,1026.1c426.7-134.3,1796.5-874.3,1751.7-943c-56.7-95.5-1041.5-623.7-1507-811.7c-450.6-179.1-522.2-188-829.6-98.5C4289.5-707.6,3137.6-167.5,2979.4-18.3c-32.8,32.8,17.9,77.6,298.4,262.6C4003,718.8,4382,927.7,4737.1,1044.1C4955,1115.7,5020.6,1112.7,5295.2,1026.1z"/><path d="M4719.2,897.8c-208.9-74.6-373-211.9-474.5-399.9c-74.6-134.3-86.5-191-86.5-367.1c3-262.6,83.6-444.6,280.5-620.7c334.2-301.4,799.8-301.4,1128-6c340.2,307.4,390.9,766.9,116.4,1122.1C5471.2,903.8,5059.4,1020.2,4719.2,897.8z M5131,474.1c59.7-17.9,143.2-71.6,185-122.4c161.2-188,65.7-507.3-176.1-587.9c-447.6-146.2-725.2,489.4-298.4,683.4C4981.8,512.9,4987.8,512.9,5131,474.1z"/></g></g>
</svg>